<?xml version="1.0" encoding="UTF-8" standalone="no"?>
<!DOCTYPE svg PUBLIC "-//W3C//DTD SVG 1.1//EN" "http://www.w3.org/Graphics/SVG/1.1/DTD/svg11.dtd">
<svg width="100%" height="100%" viewBox="0 0 303 77" version="1.1" xmlns="http://www.w3.org/2000/svg" xmlns:xlink="http://www.w3.org/1999/xlink" xml:space="preserve" xmlns:serif="http://www.serif.com/" style="fill-rule:evenodd;clip-rule:evenodd;stroke-linejoin:round;stroke-miterlimit:2;">
    <g transform="matrix(1,0,0,1,-1238,-41)">
        <g id="logo-dark-" serif:id="logo dark " transform="matrix(1.01051,0,0,1.01051,1225.76,-164.157)">
            <g transform="matrix(0.989598,0,0,0.989598,1.85381,1.4972)">
                <path d="M33.639,238.752L41.626,243.985L41.626,268.979L61.873,257.252L69.351,262.152L39.634,279.364C38.398,280.079 36.875,280.081 35.638,279.368C34.401,278.655 33.639,277.336 33.639,275.908L33.639,238.752ZM99.688,267.579L15.171,212.201L10.787,218.892L95.303,274.271L99.688,267.579ZM33.639,219.444L33.639,207.978C33.639,206.55 34.401,205.231 35.638,204.518C36.875,203.805 38.398,203.807 39.634,204.522L98.274,238.487C99.507,239.201 100.266,240.518 100.266,241.943C100.266,243.368 99.507,244.685 98.274,245.399L84.992,253.092L77.514,248.193L88.304,241.943L41.626,214.907L41.626,224.677L33.639,219.444Z" style="fill:rgb(255,0,0);"/>
            </g>
            <g transform="matrix(0.663292,0,0,0.663292,-24.3522,136.07)">
                <g transform="matrix(1,0,0,1,-98.2368,0)">
                    <g transform="matrix(1.03783,0,0,1.03783,-11.6412,99.8767)">
                        <path d="M461.525,72.6L461.525,76.2L461.925,86.1C462.225,88.3 462.725,89.9 463.525,90.9C464.325,91.9 465.625,92.4 467.325,92.4C469.625,92.4 471.225,91.5 472.025,89.7C472.925,87.9 473.325,84.9 473.425,80.8L486.725,81.6C486.825,82.2 486.825,83 486.825,84C486.825,90.3 485.125,95 481.625,98.1C478.125,101.2 473.325,102.8 467.025,102.8C459.425,102.8 454.125,100.4 451.125,95.7C448.125,91 446.525,83.6 446.525,73.7L446.525,61.6C446.865,44.6 449.855,32.15 467.425,32.1C472.725,32.1 476.725,33.1 479.525,35C482.325,36.9 484.325,39.9 485.525,44C486.725,48.1 487.225,53.7 487.225,60.9L487.225,72.6L461.525,72.6ZM463.525,43.9C462.725,44.9 462.225,46.4 461.925,48.6C461.625,50.8 461.525,58.6 461.525,58.6L461.525,63.5L472.725,63.5L472.725,58.6C472.725,63.5 472.625,50.9 472.325,48.6C472.025,46.3 471.525,44.7 470.725,43.8C469.925,42.9 468.725,42.4 467.125,42.4C465.425,42.5 464.225,43 463.525,43.9Z" style="fill:white;fill-rule:nonzero;"/>
                    </g>
                    <g transform="matrix(1.03783,0,0,1.03783,-11.6412,101.018)">
                        <path d="M353.3,20.6L338,20.6L338,101.7L323,101.7L323,20.6L307.7,20.6L307.7,8.2L353.2,8.2L353.2,20.6L353.3,20.6ZM438.325,44.3C437.425,40 435.925,36.9 433.825,34.9C431.725,33 428.925,32 425.225,32C422.411,31.994 419.659,32.83 417.325,34.4C414.825,36 413.025,38.1 411.625,40.7L411.525,40.7L411.525,4.7L396.725,4.7L396.725,101.6L409.425,101.6L411.025,95.1L411.325,95.1C412.548,97.389 414.383,99.293 416.625,100.6C419.025,101.9 421.625,102.6 424.525,102.6C429.725,102.6 433.525,100.2 436.025,95.4C438.425,90.6 439.725,83.1 439.725,73L439.725,62.2C439.725,54.6 439.225,48.6 438.325,44.3ZM424.225,72.2C424.225,77.2 424.025,81.1 423.625,83.9C423.225,86.7 422.525,88.7 421.525,89.9C420.525,91.1 419.225,91.7 417.625,91.7C414.525,91.6 412.765,90.2 411.525,88.1L411.525,49.3C412.025,47.4 412.925,45.9 414.225,44.7C416.425,42.23 420.185,42.2 421.925,44.7C422.825,45.9 423.325,48 423.725,50.9C424.025,53.8 424.225,57.9 424.225,63.3L424.225,72.2Z" style="fill:white;fill-rule:nonzero;"/>
                    </g>
                    <g id="A" transform="matrix(1,0,0,1,78.9,105.11)">
                        <path d="M311.5,33.4L311.5,101.7L299.5,101.7L298.2,93.3L297.9,93.3C294.6,99.6 289.7,102.8 283.2,102.8C271.43,102.77 270.12,92.8 270,84.4L270,33.4L285.4,33.4L285.4,83.5C285.4,86.5 285.7,88.7 286.4,90C287.82,92.78 291.5,92.07 293.5,90.7C294.655,89.92 295.585,88.851 296.2,87.6L296.2,33.4L311.5,33.4Z" style="fill:white;fill-rule:nonzero;"/>
                    </g>
                </g>
                <g transform="matrix(1.43841,0,0,1.43841,-371.334,-50.7667)">
                    <g transform="matrix(96,0,0,96,536.484,178.707)">
                        <path d="M0.273,0.002L0.133,-0.484L0.133,0.002L0.03,0.002L0.03,-0.701L0.148,-0.701L0.288,-0.221L0.288,-0.701L0.392,-0.701L0.392,0.002L0.273,0.002Z" style="fill:white;fill-rule:nonzero;"/>
                    </g>
                    <g transform="matrix(96,0,0,96,576.937,178.707)">
                        <path d="M0.222,-0.095C0.216,-0.078 0.205,-0.07 0.189,-0.07C0.173,-0.07 0.161,-0.078 0.155,-0.095C0.149,-0.112 0.146,-0.139 0.146,-0.177L0.146,-0.336C0.146,-0.373 0.149,-0.4 0.156,-0.417C0.162,-0.433 0.173,-0.442 0.189,-0.442C0.205,-0.442 0.216,-0.433 0.222,-0.417C0.229,-0.4 0.232,-0.373 0.232,-0.336L0.232,-0.177C0.232,-0.139 0.229,-0.112 0.222,-0.095ZM0.094,-0.015C0.117,0 0.148,0.008 0.189,0.008C0.228,0.008 0.26,0.001 0.283,-0.015C0.306,-0.03 0.323,-0.054 0.333,-0.087C0.343,-0.12 0.348,-0.164 0.348,-0.219L0.348,-0.292C0.348,-0.348 0.343,-0.392 0.332,-0.425C0.322,-0.458 0.306,-0.482 0.283,-0.498C0.26,-0.513 0.229,-0.521 0.191,-0.521C0.153,-0.521 0.122,-0.513 0.098,-0.498C0.075,-0.483 0.057,-0.459 0.046,-0.425C0.035,-0.392 0.03,-0.348 0.03,-0.292L0.03,-0.219C0.03,-0.164 0.035,-0.121 0.044,-0.087C0.054,-0.055 0.07,-0.03 0.094,-0.015Z" style="fill:white;fill-rule:nonzero;"/>
                    </g>
                </g>
            </g>
        </g>
    </g>
</svg>
